<svg width="512" height="512" viewBox="0 0 512 512" fill="none" xmlns="http://www.w3.org/2000/svg">
<path d="M500.162 258.626C499.202 228.535 486.464 201.233 466.449 181.218C451.189 165.958 431.696 154.954 409.959 150.147C402.197 126.77 389.027 105.775 371.936 88.6899C344.742 61.4914 307.653 44.1892 266.768 42.8901C191.422 40.4817 127.608 91.4797 110.208 160.889C53.7071 165.907 9.65523 214.214 11.5122 272.432C13.3221 329.217 59.5758 375.46 116.361 377.276C147.963 378.287 176.657 365.765 197.095 345.065C197.997 344.153 198.864 343.193 199.734 342.249C217.274 349.897 236.443 354.42 256.545 355.058C274.776 355.647 292.31 353.053 308.704 347.886C328.208 365.389 353.658 376.378 381.517 377.272C415.017 378.338 445.429 365.07 467.082 343.136C488.388 321.553 501.221 291.585 500.162 258.626Z" fill="white"/>
<path d="M385.283 388.698C383.911 388.698 382.534 388.683 381.158 388.631C353.824 387.76 327.384 377.828 306.018 360.524C289.815 364.976 273.131 366.966 256.18 366.425C237.738 365.837 219.73 362.221 202.52 355.662C179.221 377.884 148.49 389.652 115.996 388.636C53.0422 386.63 2.15695 335.74 0.150719 272.793C-1.79341 211.98 42.0627 159.764 101.272 150.529C122.993 78.2985 190.422 29.0999 267.128 31.5183C309.577 32.8795 349.658 50.3259 379.982 80.6497C396.968 97.6367 410.248 118.255 418.639 140.585C439.673 146.377 458.874 157.562 474.489 173.178C497.351 196.039 510.501 226.255 511.52 258.264C512.639 293.266 499.732 326.24 475.18 351.124C451.257 375.351 419.33 388.698 385.283 388.698ZM311.469 335.085L316.291 339.422C334.469 355.729 357.764 365.136 381.885 365.904C411.16 366.843 438.581 355.816 458.993 335.147C479.131 314.746 489.719 287.702 488.796 258.987C487.96 232.779 477.172 208.015 458.41 189.259C444.336 175.184 426.735 165.499 407.51 161.251L401.202 159.858L399.171 153.731C392.1 132.443 379.909 112.727 363.901 96.7295C337.682 70.5111 303.047 55.4214 266.412 54.246C197.807 52.0332 137.778 97.6681 121.234 163.653L119.269 171.502L111.208 172.219C60.0349 176.751 21.2387 220.618 22.8783 272.065C24.5024 323.058 65.7288 364.285 116.727 365.909C144.173 366.786 169.865 356.456 188.998 337.075C189.731 336.333 190.442 335.564 191.149 334.796L196.857 328.587L204.278 331.825C221.014 339.123 238.722 343.115 256.911 343.697C273.447 344.233 289.639 341.975 305.274 337.04L311.469 335.085Z" fill="#93B7FA"/>
<path d="M215.196 350.685C209.528 358.205 198.62 358.214 191.918 351.598C185.214 344.981 185.31 334.255 190.59 326.455C201.278 310.667 206.705 291.974 206.08 272.41C205.524 254.965 199.967 238.247 190.155 223.975C184.819 216.213 184.658 205.486 191.319 198.826C197.979 192.167 208.885 192.106 214.599 199.592C230.37 220.249 239.342 245.183 240.173 271.321C241.099 300.342 232.316 327.969 215.196 350.685Z" fill="#4340A3"/>
<path d="M332.845 389.044C332.845 430.336 299.365 463.806 258.079 463.806C216.784 463.806 183.31 430.336 183.31 389.044C183.31 347.751 216.785 314.276 258.079 314.276C299.365 314.276 332.845 347.751 332.845 389.044Z" fill="white"/>
<path d="M258.078 480.865C207.45 480.865 166.256 439.671 166.256 389.044C166.256 338.412 207.45 297.221 258.078 297.221C308.705 297.221 349.9 338.412 349.9 389.044C349.899 439.671 308.705 480.865 258.078 480.865ZM258.078 331.331C226.254 331.331 200.364 357.22 200.364 389.044C200.364 420.862 226.254 446.756 258.078 446.756C289.896 446.756 315.791 420.862 315.791 389.044C315.791 357.22 289.896 331.331 258.078 331.331Z" fill="#4340A3"/>
</svg>
