<svg width="493" height="148" viewBox="0 0 493 148" fill="none" xmlns="http://www.w3.org/2000/svg">
    <path d="M144.32 78.2218C144.043 69.5374 140.367 61.6581 134.591 55.8819C130.187 51.478 124.561 48.3021 118.288 46.9149C116.048 40.1682 112.247 34.1093 107.314 29.1785C99.4662 21.3291 88.7623 16.3357 76.9629 15.9608C55.2185 15.2657 36.8019 29.9836 31.7803 50.0151C15.4743 51.4631 2.76103 65.4043 3.29695 82.2059C3.81928 98.5939 17.168 111.94 33.556 112.464C42.6764 112.756 50.9574 109.142 56.8556 103.168C57.116 102.904 57.3661 102.627 57.6174 102.355C62.6793 104.562 68.2114 105.867 74.0128 106.052C79.2741 106.222 84.3345 105.473 89.0657 103.982C94.6946 109.033 102.039 112.205 110.079 112.462C119.748 112.77 128.524 108.941 134.773 102.611C140.922 96.3823 144.625 87.7334 144.32 78.2218Z"
          fill="white"/>
    <path d="M111.166 115.76C110.77 115.76 110.373 115.756 109.976 115.741C102.087 115.489 94.4567 112.623 88.2906 107.629C83.6144 108.914 78.7993 109.488 73.9074 109.332C68.585 109.162 63.3881 108.119 58.4213 106.226C51.6973 112.639 42.8282 116.036 33.4506 115.742C15.2823 115.163 0.596939 100.477 0.0179472 82.3102C-0.543123 64.7597 12.1136 49.6905 29.2013 47.025C35.4699 26.1796 54.9297 11.981 77.067 12.6789C89.3174 13.0717 100.885 18.1068 109.636 26.8581C114.539 31.7605 118.371 37.7109 120.792 44.1552C126.863 45.8267 132.404 49.0548 136.911 53.5616C143.509 60.1592 147.304 68.8795 147.598 78.1172C147.921 88.2185 144.196 97.735 137.11 104.916C130.206 111.908 120.992 115.76 111.166 115.76ZM89.8636 100.288L91.2553 101.539C96.5014 106.245 103.224 108.96 110.185 109.182C118.634 109.453 126.548 106.27 132.439 100.305C138.251 94.4177 141.306 86.6129 141.04 78.3257C140.799 70.7623 137.685 63.6153 132.27 58.2024C128.209 54.1406 123.129 51.3455 117.581 50.1193L115.76 49.7174L115.174 47.9493C113.133 41.8054 109.615 36.1155 104.995 31.4988C97.4287 23.9321 87.433 19.5772 76.8603 19.238C57.061 18.5995 39.7369 31.7696 34.9621 50.8126L34.3951 53.0779L32.0689 53.2847C17.3004 54.5928 6.10387 67.2526 6.57706 82.1002C7.04578 96.8163 18.9436 108.714 33.6615 109.183C41.5824 109.436 48.997 106.455 54.5188 100.862C54.7302 100.648 54.9355 100.426 55.1396 100.204L56.7869 98.4121L58.9286 99.3468C63.7584 101.453 68.8692 102.605 74.1184 102.773C78.8905 102.928 83.5634 102.276 88.0759 100.852L89.8636 100.288Z"
          fill="#93B7FA"/>
    <path d="M60.356 106.625L53.3506 99.7101C58.4793 94.516 61.1745 87.6263 60.941 80.3145C60.7282 73.6422 57.9808 67.3392 53.2001 62.5585L60.1609 55.5992C66.7156 62.1522 70.4883 70.8188 70.7802 80.0003C71.1003 90.0345 67.3987 99.4912 60.356 106.625Z"
          fill="#4340A3"/>
    <path d="M96.0328 115.86C96.0328 127.777 86.3703 137.436 74.4553 137.436C62.5378 137.436 52.8774 127.777 52.8774 115.86C52.8774 103.943 62.538 94.282 74.4553 94.282C86.3703 94.282 96.0328 103.943 96.0328 115.86Z"
          fill="white"/>
    <path d="M74.4553 142.359C59.8442 142.359 47.9556 130.471 47.9556 115.86C47.9556 101.248 59.8442 89.3601 74.4553 89.3601C89.0659 89.3601 100.955 101.248 100.955 115.86C100.955 130.471 89.0659 142.359 74.4553 142.359ZM74.4553 99.204C65.2708 99.204 57.7992 106.676 57.7992 115.86C57.7992 125.043 65.2708 132.515 74.4553 132.515C83.6378 132.515 91.1109 125.043 91.1109 115.86C91.1109 106.676 83.6378 99.204 74.4553 99.204Z"
          fill="#4340A3"/>
    <path d="M387.662 112.743L387.532 51.668C387.526 48.9053 389.764 46.6627 392.527 46.6627C395.285 46.6627 397.522 48.8989 397.522 51.6573V112.733C397.522 115.456 395.315 117.663 392.592 117.663C389.873 117.663 387.668 115.462 387.662 112.743Z"
          fill="#FFFFFF"/>
    <path d="M370.659 112.745L370.536 68.6696C370.528 65.9066 372.766 63.6626 375.529 63.6626C378.286 63.6626 380.522 65.8981 380.522 68.6557V112.731C380.522 115.455 378.314 117.663 375.59 117.663C372.872 117.663 370.667 115.463 370.659 112.745Z"
          fill="#FFFFFF"/>
    <path d="M381.02 51.6653C381.02 48.6507 378.576 46.165 375.562 46.165C372.515 46.165 370.058 48.7018 370.104 51.7484C370.149 54.7302 372.58 57.165 375.562 57.165C378.576 57.165 381.02 54.6796 381.02 51.6653Z"
          fill="#FFFFFF"/>
    <path d="M475.02 51.6653C475.02 48.6507 472.576 46.165 469.562 46.165C466.515 46.165 464.058 48.7018 464.104 51.7484C464.149 54.7302 466.58 57.165 469.562 57.165C472.576 57.165 475.02 54.6796 475.02 51.6653Z"
          fill="#FFFFFF"/>
    <path d="M481.658 112.745L481.535 68.6696C481.527 65.9066 483.765 63.6626 486.528 63.6626C489.285 63.6626 491.521 65.8981 491.521 68.6557V112.731C491.521 115.455 489.313 117.663 486.589 117.663C483.871 117.663 481.666 115.463 481.658 112.745Z"
          fill="#FFFFFF"/>
    <path d="M492.02 51.6653C492.02 48.6507 489.576 46.165 486.562 46.165C483.515 46.165 481.058 48.7018 481.104 51.7484C481.149 54.7302 483.58 57.165 486.562 57.165C489.576 57.165 492.02 54.6796 492.02 51.6653Z"
          fill="#FFFFFF"/>
    <path d="M190.497 85.7467L190.38 51.6712C190.37 48.9078 192.608 46.6627 195.371 46.6627C198.128 46.6627 200.362 48.8974 200.362 51.6541V85.7297C200.362 88.4541 198.154 90.6627 195.43 90.6627C192.712 90.6627 190.506 88.4644 190.497 85.7467Z"
          fill="#FFFFFF"/>
    <path d="M216.862 116.423C202.251 116.423 190.362 104.534 190.362 89.9232C190.362 75.311 202.251 63.4236 216.862 63.4236C231.473 63.4236 243.362 75.311 243.362 89.9232C243.362 104.534 231.473 116.423 216.862 116.423ZM216.862 73.2675C207.678 73.2675 200.206 80.739 200.206 89.9232C200.206 99.1062 207.678 106.579 216.862 106.579C226.045 106.579 233.518 99.1062 233.518 89.9232C233.518 80.739 226.045 73.2675 216.862 73.2675Z"
          fill="#FFFFFF"/>
    <path d="M293.486 111.752L293.389 93.6761C293.374 90.9116 295.611 88.6626 298.375 88.6626C301.129 88.6626 303.362 90.8952 303.362 93.6492V111.725C303.362 114.452 301.151 116.663 298.424 116.663C295.707 116.663 293.501 114.468 293.486 111.752Z"
          fill="#FFFFFF"/>
    <path d="M276.861 116.423C262.25 116.423 250.362 104.534 250.362 89.9232C250.362 75.311 262.25 63.4236 276.861 63.4236C291.472 63.4236 303.361 75.311 303.361 89.9232C303.361 104.534 291.472 116.423 276.861 116.423ZM276.861 73.2674C267.677 73.2674 260.205 80.739 260.205 89.9232C260.205 99.1062 267.677 106.579 276.861 106.579C286.044 106.579 293.517 99.1062 293.517 89.9232C293.517 80.739 286.044 73.2674 276.861 73.2674Z"
          fill="#FFFFFF"/>
    <path d="M353.662 129.741L353.532 68.6653C353.526 65.9027 355.764 63.66 358.527 63.66C361.285 63.66 363.522 65.8962 363.522 68.6547V129.73C363.522 132.453 361.315 134.66 358.592 134.66C355.873 134.66 353.668 132.459 353.662 129.741Z"
          fill="#FFFFFF"/>
    <path d="M310.522 89.9232C310.522 104.534 322.41 116.423 337.021 116.423C349.96 116.423 360.764 107.099 363.067 94.8188C363.569 92.1471 361.317 89.9232 358.599 89.9232C355.881 89.9232 353.75 92.1747 352.956 94.7746C350.874 101.599 344.517 106.579 337.021 106.579C327.837 106.579 320.365 99.1061 320.365 89.9232L320.362 68.6444C320.362 65.8915 318.13 63.66 315.377 63.66C312.612 63.66 310.375 65.9105 310.392 68.6755L310.522 89.9232Z"
          fill="#FFFFFF"/>
    <path d="M474.361 115.16C474.361 128.051 467.443 133.374 455.78 134.449C453.073 134.698 450.861 132.456 450.861 129.738C450.861 127.02 453.072 124.886 455.784 124.695C461.647 124.284 464.517 122.517 464.517 115.16L464.52 68.6527C464.521 65.8956 466.756 63.6606 469.513 63.6606C472.276 63.6606 474.514 65.9053 474.505 68.6686L474.361 115.16Z"
          fill="#FFFFFF"/>
    <path d="M431.021 116.423C416.41 116.423 404.522 104.534 404.522 89.9232C404.522 75.311 416.41 63.4236 431.021 63.4236C445.632 63.4236 457.521 75.311 457.521 89.9232C457.521 104.534 445.632 116.423 431.021 116.423ZM431.021 73.2674C421.837 73.2674 414.365 80.739 414.365 89.9232C414.365 99.1062 421.837 106.579 431.021 106.579C440.204 106.579 447.677 99.1062 447.677 89.9232C447.677 80.739 440.204 73.2674 431.021 73.2674Z"
          fill="#FFFFFF"/>
</svg>
