<svg width="10" height="41" viewBox="0 0 10 41" fill="none" xmlns="http://www.w3.org/2000/svg">
    <path d="M5.22881 7.31422C5.90332 6.45677 7.36755 4.09825 8.5479 0.616541C8.61626 0.414775 8.6837 0.209236 8.75 0H10V41H8.75C8.6837 40.7908 8.61626 40.5852 8.5479 40.3835C7.36755 36.9018 5.90332 34.5432 5.22881 33.6858L5.16113 33.6015C1.88019 29.5022 0.0812531 25.1561 0.00267029 20.6541H0C0 20.6027 0.000228882 20.5513 0.000686646 20.4999C0.000228882 20.4485 0 20.3973 0 20.3459H0.00267029C0.0812531 15.8439 1.88019 11.4978 5.16113 7.3985L5.22881 7.31422Z"
          fill="#354567"/>
</svg>
